<?xml version="1.0" encoding="UTF-8" standalone="no"?>
<!DOCTYPE svg PUBLIC "-//W3C//DTD SVG 1.1//EN" "http://www.w3.org/Graphics/SVG/1.1/DTD/svg11.dtd">
<svg width="100%" height="100%" viewBox="0 0 240 240" version="1.1" xmlns="http://www.w3.org/2000/svg" xmlns:xlink="http://www.w3.org/1999/xlink" xml:space="preserve" xmlns:serif="http://www.serif.com/" style="fill-rule:evenodd;clip-rule:evenodd;stroke-linecap:round;stroke-linejoin:round;stroke-miterlimit:1.5;">
    <g transform="matrix(1.3001,0,0,1.3001,-34.2761,-16.0904)">
        <g>
            <g transform="matrix(0.769172,0,0,0.769172,26.3642,12.3763)">
                <path d="M99.011,46.164C99.011,33.622 109.194,23.44 121.736,23.44C134.278,23.44 144.46,33.622 144.46,46.164L99.011,46.164Z" style="fill:none;stroke:rgb(13,13,13);stroke-width:3.63px;"/>
            </g>
            <g transform="matrix(0.697143,0,0,1,31.2201,-3.06576)">
                <path d="M197.548,56.48C197.548,53.426 193.997,50.95 189.617,50.95C164.4,50.95 86.251,50.95 61.159,50.95C59.08,50.95 57.085,51.526 55.614,52.552C54.144,53.577 53.318,54.967 53.318,56.417C53.318,82.742 53.318,195.181 53.318,195.181L197.548,195.181L197.548,56.48Z" style="fill:none;stroke:rgb(13,13,13);stroke-width:3.24px;"/>
            </g>
            <g transform="matrix(1,0,0,1.42808,11.045,-86.0172)">
                <path d="M56.68,155.561L31.267,156.089L37.691,180.353L57.345,194.759" style="fill:none;stroke:black;stroke-width:2.27px;"/>
            </g>
            <g transform="matrix(-1,0,0,1.42808,226.285,-86.0172)">
                <path d="M56.68,155.561L31.267,156.089L37.691,180.353L57.345,194.759" style="fill:none;stroke:black;stroke-width:2.27px;"/>
            </g>
            <g transform="matrix(1,0,0,1,-6.85846,5.24184)">
                <rect x="96.183" y="145.137" width="58.681" height="27.494" style="fill:none;stroke:rgb(13,13,13);stroke-width:2.79px;"/>
            </g>
            <g transform="matrix(1,0,0,1,-1.66482,0.843955)">
                <path d="M80.11,96.4C99.67,113.502 140.989,115.123 160.549,97.059" style="fill:none;stroke:rgb(13,13,13);stroke-width:2.79px;"/>
            </g>
            <g transform="matrix(1,0,0,1,-0.0894223,-0.808268)">
                <circle cx="118.754" cy="111.583" r="8.417" style="fill:none;stroke:rgb(13,13,13);stroke-width:2.79px;"/>
            </g>
        </g>
        <g transform="matrix(1,0,0,1,-10.5286,-8.01081)">
            <path d="M85.929,55.895L86.351,25.249L98.588,25.249L98.588,55.895" style="fill:none;stroke:rgb(13,13,13);stroke-width:2.79px;"/>
        </g>
        <g transform="matrix(1,0,0,1,63.3516,-8.01081)">
            <path d="M85.929,55.895L86.351,25.249L98.588,25.249L98.588,55.895" style="fill:none;stroke:rgb(13,13,13);stroke-width:2.79px;"/>
        </g>
    </g>
</svg>
